HIERARCHY
ROOT Hips
{
  OFFSET 0 38.8504 0
  CHANNELS 6 Xposition Yposition Zposition Zrotation Xrotation Yrotation
  JOINT Chest
  {
    OFFSET -1.71542e-013 12.0712 3.57864e-020
    CHANNELS 3 Zrotation Xrotation Yrotation
    JOINT Neck
    {
      OFFSET 7.03924e-007 11.8099 3.51962e-007
      CHANNELS 3 Zrotation Xrotation Yrotation
      JOINT Head
      {
        OFFSET -6.99353e-014 3.63638 0
        CHANNELS 3 Zrotation Xrotation Yrotation
        End Site
        {
          OFFSET -6.99353e-014 9.80614 -1.31754e-006
        }
      }
    }
    JOINT LeftCollar
    {
      OFFSET 7.03924e-007 11.8099 3.51962e-007
      CHANNELS 3 Zrotation Xrotation Yrotation
      JOINT LeftUpArm
      {
        OFFSET 7.83858 0.237048 -1.77796e-006
        CHANNELS 3 Zrotation Xrotation Yrotation
        JOINT LeftLowArm
        {
          OFFSET 10.882 0.0243112 -2.26622e-006
          CHANNELS 3 Zrotation Xrotation Yrotation
          JOINT LeftHand
          {
            OFFSET 10.3581 -0.0243112 -3.09991e-006
            CHANNELS 3 Zrotation Xrotation Yrotation
            End Site
            {
              OFFSET 5.85126 0 1.10706e-005
            }
          }
        }
      }
    }
    JOINT RightCollar
    {
      OFFSET 7.03924e-007 11.8099 3.51962e-007
      CHANNELS 3 Zrotation Xrotation Yrotation
      JOINT RightUpArm
      {
        OFFSET -7.83858 0.237048 -7.98517e-008
        CHANNELS 3 Zrotation Xrotation Yrotation
        JOINT RightLowArm
        {
          OFFSET -10.882 0.0243112 6.35596e-008
          CHANNELS 3 Zrotation Xrotation Yrotation
          JOINT RightHand
          {
            OFFSET -10.3581 -0.0243112 7.33298e-007
            CHANNELS 3 Zrotation Xrotation Yrotation
            End Site
            {
              OFFSET -5.85126 0 9.09199e-007
            }
          }
        }
      }
    }
  }
  JOINT LeftUpLeg
  {
    OFFSET 3.90551 0 1.16393e-007
    CHANNELS 3 Zrotation Xrotation Yrotation
    JOINT LeftLowLeg
    {
      OFFSET 0.0053738 -17.2795 -1.73606e-007
      CHANNELS 3 Zrotation Xrotation Yrotation
      JOINT LeftFoot
      {
        OFFSET -0.0053738 -16.1654 -1.06366e-007
        CHANNELS 3 Zrotation Xrotation Yrotation
        End Site
        {
          OFFSET 2.9333e-007 -4.17131 6.53195
        }
      }
    }
  }
  JOINT RightUpLeg
  {
    OFFSET -3.90551 0 -1.16393e-007
    CHANNELS 3 Zrotation Xrotation Yrotation
    JOINT RightLowLeg
    {
      OFFSET -0.0053738 -17.2795 -1.73692e-007
      CHANNELS 3 Zrotation Xrotation Yrotation
      JOINT RightFoot
      {
        OFFSET 0.0053738 -16.1654 -1.0707e-007
        CHANNELS 3 Zrotation Xrotation Yrotation
        End Site
        {
          OFFSET 2.9333e-007 -4.17131 6.53195
        }
      }
    }
  }
}
MOTION
Frames:	26
Frame Time:	0.0166667
6.11491 -3.74084 15.5371 15.7828 -8.75292 166.336 24.6103 23.1518 -51.6249 0 0 0 8.98458 -11.425 35.4131 11.1624 0 0 -74.1809 47.5045 -9.29741 0.0864899 -0.127887 -107.972 10.559 -2.75945 -2.17586 12.8626 0 0 61.9479 37.4328 7.41359 -0.237724 -0.0778871 35.3848 -8.8509 2.63099 -2.86151 7.53513 -15.1251 -27.4587 0.0413014 35.8042 -0.0137397 3.71093 -20.973 27.2013 20.4368 -42.8668 6.28225 -0.0521286 56.277 0.0285364 13.8758 -9.46712 21.455 
6.40957 -3.96168 15.8957 13.3683 -7.29348 171.672 20.7087 23.4105 -46.1537 0 0 0 4.96297 -15.5834 36.6997 11.574 0 0 -76.9483 47.4145 -4.98021 0.0897095 -0.128896 -106.542 10.5007 -3.13124 -2.11504 13.38 0 0 57.0998 40.429 11.4561 -0.23771 -0.0779129 35.3964 -15.2949 12.0274 -5.52231 4.41231 -16.9172 -30.1963 0.041587 36.7476 -0.0142201 2.35549 -20.8983 33.2107 18.6036 -44.3635 6.21275 -0.0524709 56.6511 0.0289447 11.8658 -7.44906 22.739 
6.68995 -4.15454 16.2356 10.9089 -6.44474 176.816 16.9515 23.7502 -38.7026 0 0 0 0.66933 -19.4001 37.137 10.5441 0 0 -76.796 45.8986 -3.55549 0.0925683 -0.129702 -105.269 10.4428 -3.49881 -2.04798 13.7266 0 0 54.9936 37.3048 10.6317 -0.230878 -0.0867442 40.1539 -18.5863 17.2358 -6.93032 1.39641 -18.6039 -32.7866 0.0416946 37.0948 -0.0143992 1.39287 -20.8738 39.0011 16.5312 -46.3827 5.93581 -0.0541443 58.3705 0.0309276 9.80403 -5.34441 24.2033 
6.95572 -4.32162 16.5289 8.49053 -6.08785 -178.371 13.4336 24.0998 -28.5577 0 0 0 -3.70801 -22.5761 36.8221 7.50931 0 0 -74.585 43.4446 -5.52784 0.0970566 -0.130871 -103.304 10.3851 -3.85859 -1.97597 13.0623 0 0 55.4509 30.1199 6.22113 -0.220932 -0.0973343 46.3477 -19.627 18.6228 -7.17902 -1.34859 -20.0919 -35.0441 0.0415294 36.5639 -0.0141252 0.7131 -20.3907 44.1278 14.2113 -48.4935 5.34075 -0.0566626 60.6329 0.0338513 7.73726 -3.21764 25.8521 
7.2066 -4.46515 16.7485 6.23399 -6.16642 -173.923 10.2519 24.3455 -18.7217 0 0 0 -7.90246 -24.8515 35.997 3.83724 0 0 -72.4855 40.7983 -8.10593 0.102797 -0.132067 -100.79 10.3275 -4.20696 -1.90024 11.5977 0 0 56.803 21.3236 2.21073 -0.2134 -0.104005 50.6334 -20.4203 19.5642 -7.38223 -3.72018 -21.4305 -36.797 0.0411566 35.3125 -0.0134926 0.248404 -19.421 48.4266 11.6491 -50.3682 4.37744 -0.0592964 62.6601 0.0368425 5.70623 -1.13106 27.672 
7.44236 -4.58745 16.8671 4.24862 -6.57517 -169.818 7.54383 24.3675 -11.4407 0 0 0 -11.5674 -26.0298 35.0209 0.995836 0 0 -71.6237 38.5138 -8.77096 0.108365 -0.133008 -98.3837 10.2697 -4.54032 -1.82209 9.86367 0 0 58.8 13.2916 4.184 -0.208429 -0.107909 53.3262 -21.0031 20.1208 -7.51856 -5.73537 -22.6759 -37.8981 0.0408115 34.075 -0.0128822 -0.283138 -18.343 51.1521 8.90143 -52.4782 3.08679 -0.0660068 66.7104 0.0442581 3.74752 0.857461 29.6325 
7.66284 -4.69081 16.8577 2.63582 -7.17317 -166.003 5.47461 24.0481 -7.29491 0 0 0 -14.3195 -25.9762 34.2962 -0.298627 0 0 -72.228 36.7232 -6.13015 0.112597 -0.133563 -96.5687 10.2114 -4.85507 -1.74274 8.11769 0 0 61.8395 9.26307 9.65207 -0.200851 -0.113174 57.2593 -21.41 20.3537 -7.56858 -7.4159 -23.9784 -38.1896 0.0407426 33.8193 -0.0127597 -0.937399 -18.0133 51.3 5.85297 -52.8113 1.42505 -0.0702875 68.7126 0.0488871 1.89506 2.69629 31.688 
7.88508 -4.80959 16.6984 1.39642 -7.70428 -162.117 4.15997 23.3832 -4.07781 0 0 0 -16.4281 -25.2051 33.8397 -1.33284 0 0 -73.4133 34.5336 -1.64104 0.119405 -0.134195 -93.6585 10.1522 -5.1476 -1.66357 5.94071 0 0 65.3705 9.21665 14.1725 -0.191838 -0.118502 61.725 -21.6726 20.3231 -7.51473 -8.736 -25.6276 -37.3679 0.041315 35.8505 -0.0137592 -3.31676 -18.7173 44.6378 2.3507 -48.1594 -0.507767 -0.0579697 61.6786 0.0353413 0.180985 4.3412 33.7801 
8.11899 -4.96073 16.4055 0.432239 -8.02364 -157.803 3.5027 22.4892 0.513378 0 0 0 -18.3689 -24.3181 33.4099 -3.51165 0 0 -73.549 31.0445 1.40292 0.132136 -0.134386 -88.222 10.0918 -5.4143 -1.58575 3.04713 0 0 67.0931 9.54843 20.4936 -0.191172 -0.118863 62.0472 -21.8195 20.0892 -7.34103 -9.3344 -28.4618 -35.2515 0.0433696 41.8088 -0.0170343 -5.62462 -19.6333 36.8346 -0.347264 -42.6687 -1.78461 -0.0498566 53.5175 0.0257584 -1.36391 5.75572 35.8407 
8.35355 -5.1204 16.0086 -0.305336 -8.13038 -153.072 3.36258 21.4342 6.56597 0 0 0 -20.0878 -23.3382 32.982 -6.49281 0 0 -72.3938 26.5367 1.8781 0.149675 -0.132687 -80.7117 10.0297 -5.65157 -1.5106 -0.317697 0 0 66.319 8.7184 25.2802 -0.188654 -0.120159 63.2574 -21.8771 19.7112 -7.03241 -7.53344 -32.0667 -31.2424 0.0467372 48.8119 -0.0217642 -7.62899 -20.776 28.2345 -2.21128 -41.9422 -2.50408 -0.0504946 54.3431 0.0265501 -2.71029 6.91057 37.7953 
8.57757 -5.26454 15.5373 -0.877658 -8.02442 -147.966 3.60468 20.2841 13.6148 0 0 0 -21.5343 -22.2884 32.5235 -9.64265 0 0 -70.4419 21.559 -0.169306 0.169721 -0.127808 -71.9135 9.96536 -5.85581 -1.43942 -3.63575 0 0 63.8654 5.74338 25.6462 -0.172927 -0.126887 70.5496 -21.8703 19.2482 -6.57427 -2.93565 -35.6653 -25.0628 0.0503008 54.1069 -0.0263161 -9.20515 -22.1873 19.2287 -3.44526 -42.0324 -2.79534 -0.0531627 57.386 0.0297684 -1.76742 5.09121 34.1441 
8.77968 -5.3688 15.0217 -1.36168 -7.71649 -142.552 4.09681 19.1056 20.5813 0 0 0 -22.6606 -21.1899 31.9947 -12.2194 0 0 -68.3534 16.6256 -3.70113 0.188605 -0.120026 -63.2042 9.89835 -6.02339 -1.37349 -6.27758 0 0 60.6072 0.592255 25.4752 -0.147492 -0.133184 81.728 -21.8238 18.7586 -5.95182 3.53364 -39.278 -17.0711 0.0541949 58.4263 -0.0309947 -10.3378 -23.8906 10.2334 -3.26031 -40.0222 -2.27 -0.0535957 57.8191 0.030281 -1.53364 1.79242 28.594 
8.94836 -5.40862 14.4916 -1.84757 -7.23756 -136.923 4.70774 17.968 26.2817 0 0 0 -23.4211 -20.0603 31.3487 -13.7949 0 0 -66.2171 12.0038 -6.95662 0.200976 -0.112927 -57.1235 9.82812 -6.15073 -1.3141 -7.88093 0 0 57.484 -6.88828 30.7403 -0.132283 -0.134556 88.2441 -21.7636 18.3004 -5.1495 10.8151 -42.8899 -7.85842 0.0597379 62.9729 -0.0373412 -11.0896 -25.8453 1.67005 -3.30117 -37.7113 -1.85341 -0.0535359 57.7768 0.0302157 -0.427566 -0.699059 24.2346 
9.07195 -5.35919 13.9772 -2.43193 -6.64552 -131.199 5.30666 16.9436 30.0628 0 0 0 -23.7712 -18.9125 30.5323 -14.4175 0 0 -61.7397 7.01175 -6.27574 0.19721 -0.115273 -59.0102 9.75415 -6.23421 -1.26257 -8.50133 0 0 56.6437 -15.0065 40.87 -0.132908 -0.134532 87.9742 -21.7188 17.9316 -4.1505 18.6015 -46.1695 2.17953 0.0695997 68.4231 -0.0481573 -11.5472 -27.9233 -6.04354 -3.33247 -35.0335 -1.41093 -0.0538862 58.1186 0.0306286 0.76229 -4.38119 20.1841 
9.13874 -5.1957 13.509 -3.21357 -6.03081 -125.489 5.7629 16.1073 31.8889 0 0 0 -23.6666 -17.7534 29.4863 -14.3857 0 0 -53.3652 1.2717 -3.86713 0.187085 -0.120766 -63.9236 9.67594 -6.27024 -1.22019 -8.4067 0 0 58.7378 -20.6699 52.3438 -0.139595 -0.134123 85.1229 -21.7242 17.7094 -2.9363 27.1428 -48.6541 12.7689 0.0877471 74.1968 -0.0672926 -11.7655 -29.9138 -12.4885 -3.11574 -31.9937 -0.917645 -0.0528171 57.0246 0.0293552 1.1951 -5.87139 16.3832 
9.13709 -4.8935 13.1173 -4.28539 -5.51658 -119.876 5.94584 15.5357 32.05 0 0 0 -23.0632 -16.5836 28.1459 -14.0055 0 0 -43.1973 -4.33963 -2.74876 0.184315 -0.122092 -65.2291 9.59301 -6.2552 -1.18825 -7.85443 0 0 62.113 -21.8873 63.7144 -0.139218 -0.134156 85.2859 -21.8221 17.6903 -1.48606 35.8217 -50.3538 23.0477 0.126338 79.8918 -0.106826 -11.7322 -31.5515 -17.2348 -2.53131 -28.3404 -0.349334 -0.0517934 55.8962 0.0281255 -0.227309 -8.45498 11.3843 
9.05554 -4.42833 12.833 -5.7238 -5.25166 -114.437 5.72415 15.3063 30.9164 0 0 0 -21.9165 -15.3966 26.4401 -13.5002 0 0 -33.9373 -8.78849 -1.90673 0.185898 -0.121348 -64.4875 9.50491 -6.18551 -1.16807 -7.01482 0 0 64.027 -18.732 76.7537 -0.141562 -0.133937 84.2766 -21.9477 17.8834 1.89394 43.5572 -51.7054 31.8783 0.245495 85.201 -0.226882 -11.3673 -32.5504 -19.8412 -2.16241 -23.9445 0.0743545 -0.0498175 53.4692 0.025709 -2.32264 -9.79107 6.50306 
8.86384 -3.73817 12.6477 -7.66306 -5.30439 -108.687 4.92974 15.3894 28.8161 0 0 0 -19.8934 -14.2049 23.9771 -12.7604 0 0 -25.6092 -12.3099 1.73132 0.180137 -0.123933 -67.1764 9.41129 -6.05755 -1.16092 -5.81078 0 0 62.9626 -14.4087 89.1663 -0.153278 -0.13222 79.2348 -22.0364 18.0762 7.69137 51.1203 -54.2188 40.112 179.561 87.6108 -179.544 -10.6627 -33.0475 -20.7113 -2.35193 -18.11 0.422166 -0.0463624 48.1458 0.0212572 -3.5733 -8.2238 2.37283 
8.55727 -2.81447 12.5262 -10.0275 -5.6601 -102.1 3.60214 15.683 26.1386 0 0 0 -16.8723 -12.9797 20.5299 -11.5746 0 0 -16.7971 -15.7408 6.90605 0.171753 -0.127136 -71.0003 9.31186 -5.86773 -1.16811 -4.18048 0 0 60.1793 -12.3185 98.2961 -0.169336 -0.128114 72.167 -22.0863 18.0713 14.1003 57.035 -57.1032 47.2689 179.911 79.7086 -179.895 -9.69936 -33.3466 -20.6131 -1.94906 -9.97399 0.95372 -0.0427754 40.2564 0.0161247 -5.97274 -5.98706 -3.90362 
8.16312 -1.71388 12.4583 -12.5607 -6.33189 -94.7182 1.92383 16.1555 23.2958 0 0 0 -13.123 -11.6629 16.2821 -9.95763 0 0 -8.27557 -19.1506 10.4665 0.168307 -0.128267 -72.5448 9.20645 -5.61245 -1.19092 -2.28074 0 0 56.6787 -12.7439 103.609 -0.179308 -0.124449 67.643 -22.0304 17.8844 19.3002 59.187 -59.2515 51.4703 179.953 72.8105 -179.938 -8.5067 -33.418 -19.6628 -1.94437 0.642834 1.47302 -0.0393412 27.754 0.0100198 -7.40698 -0.412264 -1.67123 
7.70872 -0.492888 12.4337 -15.026 -7.21035 -87.1497 0.0826038 16.7767 21.2185 0 0 0 -8.91051 -10.2232 11.4349 -8.0218 0 0 -1.73109 -22.6917 9.92466 0.171434 -0.127246 -71.1428 9.09501 -5.28811 -1.23063 -0.379502 0 0 52.5218 -14.5574 106.28 -0.182534 -0.12307 66.1449 -21.8007 17.7287 21.4885 60.0855 -60.7159 54.152 179.971 66.047 -179.957 -7.12346 -33.2384 -17.986 -1.40424 13.7916 1.89246 -0.0371034 9.15504 0.00297062 -8.93385 5.88947 2.00715 
7.22126 0.792514 12.4418 -17.2836 -8.2189 -79.4459 -1.73144 17.5201 20.1997 0 0 0 -4.49325 -8.65809 6.21147 -5.84636 0 0 1.90923 -26.5899 8.11687 0.160743 -0.130406 -75.8939 8.97765 -4.89112 -1.28851 1.30475 0 0 47.9876 -17.4395 106.019 -0.182528 -0.123064 66.1458 -21.4716 17.7294 20.9098 59.9807 -61.7171 55.5289 179.98 60.0079 -179.967 -5.59726 -32.7921 -15.7162 -1.86033 16.735 2.39093 -0.0373285 12.5144 0.00422907 -10.4584 11.8243 6.31158 
6.72765 2.08702 12.4715 -19.2506 -9.26865 -71.6321 -3.33092 18.364 20.3388 0 0 0 -0.121837 -6.98974 0.863636 -3.5367 0 0 1.00103 -30.0162 3.37335 0.139321 -0.133975 -85.1566 8.85467 -4.41787 -1.36583 2.60751 0 0 43.1474 -20.9881 101.701 -0.180101 -0.124107 67.2701 -21.1346 17.8119 19.1926 58.895 -62.7817 55.8831 179.984 55.1966 -179.973 -3.98215 -32.0723 -12.991 -1.80209 23.8677 2.72576 -0.0370549 8.17478 0.00264793 -11.7984 16.4469 10.2603 
6.25442 3.33617 12.5114 -20.9204 -10.2486 -63.9067 -4.53551 19.2933 21.5448 0 0 0 3.96025 -5.25504 -4.32324 -1.28251 0 0 -4.30076 -31.3902 -6.59055 0.121966 -0.134322 -92.5575 8.72659 -3.8648 -1.46388 3.4656 0 0 37.5264 -23.4592 94.3512 -0.181077 -0.123707 66.8231 -20.7714 17.9179 16.6253 57.124 -65.2019 56.1258 179.988 50.8942 -179.977 -2.33478 -31.0825 -9.94859 -0.828779 32.8503 2.53117 -0.0368651 0 0 -12.6903 18.9461 12.745 
5.8277 4.48632 12.5495 -22.3595 -11.072 -56.4817 -5.17274 20.2985 23.1965 0 0 0 7.51414 -3.49359 -9.02822 0.656233 0 0 -9.99804 -30.9827 -17.8889 0.106717 -0.132762 -99.0927 8.59413 -3.22832 -1.58397 4.01338 0 0 31.4686 -24.3836 85.6166 -0.18652 -0.12121 64.2693 -20.3676 17.9904 13.4987 53.8095 -68.653 55.5692 179.99 46.8267 -179.98 -0.710307 -29.8361 -6.72275 1.52794 37.414 1.27831 -0.0368655 0 0 -13.1031 19.5166 13.7208 
5.47322 5.48452 12.5736 -23.6801 -11.699 -49.5273 -5.07451 21.376 24.1781 0 0 0 10.3019 -1.73606 -12.8959 2.01825 0 0 -15.0989 -28.8254 -28.7332 0.0957807 -0.13054 -103.847 8.45834 -2.50486 -1.72741 4.57967 0 0 25.6923 -24.3125 75.0732 -0.188242 -0.12037 63.4513 -19.9145 17.9855 10.1069 48.1123 -70.8839 52.5373 179.991 43.9993 -179.982 0.841186 -28.3561 -3.43973 4.74134 35.4021 -0.951823 -0.0372808 11.8684 0.00400313 -13.2379 19.0662 14.003 
